<svg width="16" height="16" viewBox="0 0 16 16" fill="none" xmlns="http://www.w3.org/2000/svg">
    <g clip-path="url(#clip0_11_238)">
    <path d="M5.51751 4.35928C5.61936 4.35928 5.70209 4.27503 5.70209 4.17131V2.79479C5.70209 2.69134 5.61936 2.60706 5.51751 2.60706C5.4159 2.60706 5.33337 2.69134 5.33337 2.79479V4.17131C5.33337 4.27503 5.4159 4.35928 5.51751 4.35928Z" fill="#115437"/>
    <path d="M9.93584 7.61139C10.4518 7.38457 10.821 6.98263 10.919 6.68806L11.2982 5.14712C11.3426 5.01379 11.3126 4.87657 11.2208 4.79279C11.1289 4.709 10.9913 4.69345 10.8651 4.75176L9.53152 5.372C9.31902 5.47085 8.98319 5.71442 8.86033 6.04473L8.36134 7.35615C8.34944 7.35494 8.33795 7.35251 8.32581 7.35251C8.31364 7.35251 8.30218 7.35467 8.29027 7.35615L7.79152 6.04473C7.6687 5.71442 7.33286 5.47085 7.12009 5.372L5.78652 4.75176C5.66036 4.69345 5.52274 4.709 5.4309 4.79279C5.33905 4.87657 5.30923 5.01379 5.35364 5.14712L5.73286 6.68806C5.8309 6.98263 6.19989 7.38457 6.71605 7.61139C7.19021 7.81951 7.64914 7.93221 7.99048 7.99339V9.74851L7.79155 9.22542C7.66873 8.89515 7.33289 8.65154 7.12012 8.5527L5.78655 7.93245C5.66039 7.87415 5.52277 7.8897 5.43093 7.97348C5.33908 8.05727 5.30926 8.19448 5.35367 8.32782L5.73289 9.86876C5.83093 10.1634 6.19992 10.5653 6.71608 10.7921C7.19024 11.0002 7.64917 11.1131 7.99051 11.1741V12.9292L7.79158 12.4061C7.66876 12.0758 7.33292 11.8322 7.12015 11.7334L5.78658 11.1131C5.66042 11.0548 5.5228 11.0704 5.43096 11.1542C5.33911 11.238 5.30929 11.3751 5.3537 11.5085L5.73292 13.0495C5.83096 13.344 6.19995 13.7459 6.71611 13.9728C7.19027 14.1809 7.6492 14.2936 7.99054 14.3548V15.1737C7.99054 15.3624 8.14054 15.5152 8.3259 15.5152C8.51123 15.5152 8.66126 15.3624 8.66126 15.1737V14.3548C9.00256 14.2936 9.46146 14.1809 9.9359 13.9728C10.4518 13.7459 10.821 13.344 10.9191 13.0495L11.2983 11.5085C11.3427 11.3752 11.3126 11.238 11.2208 11.1542C11.129 11.0704 10.9913 11.0548 10.8652 11.1131L9.53158 11.7334C9.31908 11.8322 8.98325 12.0758 8.86039 12.4061L8.66123 12.9297V11.1741C9.00254 11.1131 9.46143 11.0002 9.93587 10.7921C10.4518 10.5652 10.821 10.1633 10.9191 9.86873L11.2983 8.32779C11.3427 8.19445 11.3126 8.05724 11.2208 7.97345C11.1289 7.88966 10.9913 7.87412 10.8651 7.93242L9.53155 8.55267C9.31905 8.65151 8.98322 8.89512 8.86036 9.22539L8.6612 9.74924V7.99336C9.00251 7.93218 9.4614 7.81951 9.93584 7.61139Z" fill="#115437"/>
    <path d="M11.1342 2.60706C11.0324 2.60706 10.9498 2.69134 10.9498 2.79479V4.17131C10.9498 4.275 11.0324 4.35928 11.1342 4.35928C11.2358 4.35928 11.3186 4.27503 11.3186 4.17131V2.79479C11.3186 2.69134 11.2358 2.60706 11.1342 2.60706Z" fill="#115437"/>
    <path d="M8.31752 1.752C8.41937 1.752 8.5019 1.66797 8.5019 1.56427V0.187727C8.5019 0.0840303 8.41937 0 8.31752 0C8.21592 0 8.13318 0.0840303 8.13318 0.187727V1.56424C8.13315 1.66794 8.21592 1.752 8.31752 1.752Z" fill="#115437"/>
    <path d="M6.80767 3.17318C6.90951 3.17318 6.99204 3.08915 6.99204 2.98545V1.60894C6.99204 1.50524 6.90951 1.42121 6.80767 1.42121C6.70606 1.42121 6.62329 1.50524 6.62329 1.60894V2.98545C6.62329 3.08915 6.70606 3.17318 6.80767 3.17318Z" fill="#115437"/>
    <path d="M9.85564 3.17318C9.95748 3.17318 10.04 3.08915 10.04 2.98545V1.60894C10.04 1.50524 9.95748 1.42121 9.85564 1.42121C9.75403 1.42121 9.67126 1.50524 9.67126 1.60894V2.98545C9.67126 3.08915 9.75403 3.17318 9.85564 3.17318Z" fill="#115437"/>
    <path d="M8.01501 5.49366C8.07822 5.60418 8.19078 5.67191 8.31147 5.67191C8.43239 5.67166 8.54451 5.60415 8.60796 5.49366L9.35477 4.18954C9.48144 3.9683 9.48144 3.68927 9.35477 3.468L8.60796 2.16412C8.54451 2.05339 8.43239 1.98588 8.31147 1.9856C8.19078 1.9856 8.07822 2.05336 8.01501 2.16412L7.2682 3.46779C7.14156 3.68927 7.14156 3.9683 7.2682 4.18979L8.01501 5.49366Z" fill="#115437"/>
    </g>
    <defs>
    <clipPath id="clip0_11_238">
    <rect width="16" height="16" fill="white"/>
    </clipPath>
    </defs>
</svg>
    