<svg width="15" height="15" viewBox="0 0 15 15" fill="none" xmlns="http://www.w3.org/2000/svg">
    <g clip-path="url(#clip0_18_397)">
    <path d="M14.9918 4.00057H12.539C12.7049 3.70172 12.8407 3.36838 12.9442 3.00346C13.2118 2.06073 13.1747 1.23192 13.173 1.19712L13.1145 0L12.4404 1.0408C12.0922 1.57832 11.6638 2.03672 11.1668 2.40312C10.7699 2.69588 10.3274 2.9316 9.85224 3.10391C9.55134 3.21295 9.27451 3.28258 9.0443 3.32733H5.95217C5.09867 3.16064 3.59543 2.64357 2.55729 1.0408L1.88319 0L1.82462 1.19712C1.82295 1.23192 1.78609 2.06073 2.05348 3.00346C2.15699 3.36838 2.29279 3.70172 2.45869 4.00057H0.0078777L0.000132766 4.33896C-0.000872109 4.38266 -0.0143276 5.41903 0.850624 6.20352C1.38071 6.6843 2.11172 6.96061 3.02748 7.02729C3.02713 8.06215 3.20029 8.82416 3.55369 9.34981C4.19534 10.304 4.35469 13.1384 4.36192 14.1501L4.36261 14.2371L4.40989 14.3134C4.46525 14.4027 4.62562 14.5751 5.07713 14.7245C5.62892 14.9072 6.44405 15 7.5 15C8.55598 15 9.37095 14.9074 9.92287 14.7245C10.3744 14.5751 10.5347 14.4027 10.5901 14.3134L10.6374 14.2371L10.6381 14.1501C10.6451 13.1388 10.8041 10.3048 11.4463 9.34997C11.7999 8.82431 11.9728 8.06231 11.9725 7.02744C12.8883 6.96076 13.6193 6.68445 14.1494 6.20368C15.0144 5.41919 15.0009 4.38281 14.9999 4.33909L14.9918 4.00057ZM3.35631 4.00057C3.00208 3.50661 2.81444 2.91915 2.7155 2.41232C2.91341 2.60581 3.12426 2.78448 3.34739 2.94762C3.67807 3.18925 4.03583 3.39654 4.41513 3.56737C4.17516 3.6779 3.89819 3.82576 3.67572 4.00059L3.35631 4.00057ZM4.22328 8.52888C3.92507 8.39082 3.84179 8.01343 4.03733 7.68615C4.23286 7.35871 4.63319 7.20523 4.93122 7.34331C5.22943 7.48139 5.31271 7.8586 5.11717 8.18604C4.92164 8.51347 4.52148 8.66696 4.22328 8.52888ZM9.8556 13.9915C9.75918 14.0423 9.55369 14.1254 9.15991 14.194C8.95177 13.9217 8.49103 13.556 7.51701 13.5518V13.5516C7.51414 13.5516 7.5113 13.5516 7.50826 13.5518C7.50539 13.5518 7.50255 13.5516 7.49951 13.5516V13.5518C6.52248 13.556 6.0619 13.9242 5.85475 14.1967C5.45089 14.1276 5.24139 14.0431 5.14359 13.9916C5.14055 13.8512 5.13401 13.6226 5.1197 13.3368C5.68865 12.8981 6.71213 11.8303 6.74982 9.80631C6.80215 6.99751 4.68402 6.57645 5.46854 5.50925C6.25305 4.44206 7.11599 4.67231 7.50809 4.67231C7.90036 4.67231 8.7633 4.44209 9.54764 5.50925C10.3321 6.57645 8.214 6.99751 8.26638 9.80631C8.3037 11.8107 9.30767 12.8772 9.87966 13.3237C9.86535 13.6155 9.85861 13.8488 9.8556 13.9915ZM10.7937 8.52888C10.4956 8.66696 10.0952 8.51347 9.89981 8.18604C9.7043 7.8586 9.78761 7.48124 10.0858 7.34331C10.384 7.20523 10.7843 7.35871 10.9799 7.68615C11.1753 8.01343 11.0919 8.39082 10.7937 8.52888ZM11.6412 4.00057H11.3238C11.101 3.82561 10.8235 3.67758 10.5834 3.5669C10.9624 3.39621 11.3198 3.18895 11.6501 2.94759C11.8732 2.78446 12.0843 2.60579 12.282 2.41229C12.1832 2.91915 11.9954 3.50646 11.6412 4.00057Z" fill="#115437"/>
    </g>
    <defs>
    <clipPath id="clip0_18_397">
    <rect width="15" height="15" fill="white"/>
    </clipPath>
    </defs>
</svg>
    