<svg width="14" height="14" viewBox="0 0 14 14" fill="none" xmlns="http://www.w3.org/2000/svg">
    <g clip-path="url(#clip0_18_400)">
    <g clip-path="url(#clip1_18_400)">
    <path d="M4.93783 3.93202C4.8992 3.78492 4.81962 3.64232 4.69699 3.53331C4.57464 3.424 4.42387 3.36132 4.27329 3.3398C4.04588 3.30766 3.81712 3.35649 3.59764 3.4571C3.3789 3.55889 3.16843 3.71553 2.98572 3.92056C2.74245 4.19418 2.58895 4.50545 2.53938 4.81167C2.51499 4.96471 2.51747 5.11827 2.55663 5.26609C2.5948 5.41305 2.67457 5.5561 2.79732 5.66497C2.91951 5.77442 3.07048 5.83696 3.22118 5.85831C3.44818 5.89094 3.67767 5.84191 3.89655 5.74136C4.11533 5.63957 4.32604 5.48261 4.50863 5.27773C4.75187 5.00408 4.90555 4.69266 4.95497 4.38662C4.97938 4.2336 4.97703 4.07988 4.93783 3.93202ZM3.50987 5.32587C3.41587 5.35252 3.33292 5.35736 3.27016 5.3483C3.20665 5.33801 3.16599 5.31816 3.13279 5.28857C3.09994 5.25929 3.07521 5.22087 3.05805 5.15927C3.03298 5.06778 3.03679 4.92518 3.09013 4.76575C3.14257 4.60667 3.24118 4.43251 3.38239 4.27406C3.57004 4.06213 3.79619 3.924 3.98463 3.87227C4.07822 3.84613 4.16178 3.84127 4.2244 3.85049C4.28783 3.86016 4.3287 3.88047 4.36183 3.90944C4.39473 3.93932 4.41928 3.9773 4.43651 4.03951C4.46151 4.13042 4.45759 4.27314 4.40438 4.43243C4.35167 4.59182 4.25352 4.76612 4.11198 4.92428C3.9243 5.13616 3.69845 5.27399 3.50987 5.32587Z" fill="#115437"/>
    <path d="M12.7859 11.629C13.0808 11.298 13.2081 10.8691 13.1718 10.448C13.137 10.028 12.9387 9.60838 12.5892 9.29748C12.2492 8.99397 11.8227 8.8451 11.4112 8.85106C11.1336 8.85444 10.8608 8.92946 10.6199 9.07142L10.1711 8.67148C10.1678 8.61572 10.1642 8.55156 10.1609 8.4831C10.1539 8.32998 10.1497 8.15687 10.1544 8.05268C10.1776 7.50809 10.1982 7.00383 10.1673 6.50392C10.1229 5.75512 9.95129 5.01012 9.50366 4.22662C9.05706 3.44269 8.35189 2.62278 7.2538 1.64364C7.13696 1.53952 7.01535 1.4334 6.88929 1.32557L6.88902 1.32588C6.56538 1.03948 6.1556 0.894511 5.736 0.866139C5.41787 0.843532 5.08884 0.882615 4.7545 0.969764C4.25353 1.10155 3.73816 1.34304 3.23204 1.67776C2.7256 2.01278 2.22987 2.44145 1.77347 2.9529C0.963469 3.86382 0.425247 4.86675 0.210239 5.79632C0.103458 6.26163 0.076703 6.71067 0.154619 7.12911C0.231212 7.54237 0.422091 7.93297 0.743936 8.22205C0.871798 8.34054 0.996955 8.45402 1.1191 8.56287C1.8935 9.253 2.55764 9.75874 3.16152 10.125C3.6148 10.3996 4.03454 10.5955 4.43743 10.7261C5.04134 10.9232 5.60303 10.9692 6.14825 10.9362C6.68779 10.9034 7.21283 10.8002 7.78948 10.6957L8.42348 10.6452L8.86596 11.0395C8.75258 11.2951 8.70934 11.5748 8.7377 11.851C8.77912 12.2603 8.97607 12.6668 9.3163 12.97C9.66549 13.2812 10.1049 13.4303 10.5262 13.4167C10.9487 13.4044 11.36 13.2289 11.6551 12.8978C11.8624 12.6652 11.9845 12.3838 12.0272 12.0912C12.3129 12.0153 12.5786 11.8616 12.7859 11.629ZM9.04169 5.8136C9.18242 5.93902 9.20014 6.14906 9.08121 6.28252C8.96228 6.41598 8.75162 6.42247 8.61087 6.29703C8.47014 6.17162 8.45244 5.96159 8.57136 5.82815C8.69027 5.69472 8.90096 5.68819 9.04169 5.8136ZM2.98464 7.87094C2.59893 7.98969 2.24224 8.02703 1.94323 7.99233C1.84774 7.98121 1.7616 7.96092 1.67847 7.93655C1.67847 7.93655 1.67814 7.93625 1.67782 7.93596C1.56033 7.83126 1.43961 7.72142 1.31532 7.60698L1.31277 7.60384L1.30942 7.60086C1.16001 7.46715 1.05708 7.28194 1.00537 7.01453C0.967514 6.81508 0.964406 6.57397 1.00279 6.30639C1.05957 5.90385 1.20988 5.44178 1.45098 4.96743C1.692 4.49248 2.02266 4.00449 2.43468 3.54215C3.16547 2.72014 4.01239 2.14537 4.74731 1.88605C5.11389 1.75536 5.4502 1.70413 5.72004 1.7241C5.99179 1.74461 6.18727 1.82596 6.33753 1.95872L6.34088 1.9617L6.34418 1.96465C6.46626 2.06889 6.58277 2.17075 6.69496 2.27072C6.70126 2.27634 6.7071 2.28183 6.71341 2.28745C6.74695 2.36677 6.77673 2.4503 6.79887 2.54373C6.90249 2.98278 6.85705 3.57107 6.63026 4.21119C6.40485 4.85171 6.00206 5.5436 5.41712 6.19998C4.63712 7.07585 3.75634 7.63517 2.98464 7.87094ZM7.15885 5.44576C7.27304 5.54752 7.28758 5.71828 7.19096 5.8267C7.09432 5.93514 6.923 5.9403 6.80881 5.83854C6.6943 5.7365 6.68008 5.56599 6.77672 5.45754C6.87332 5.3491 7.04434 5.34371 7.15885 5.44576ZM3.85805 9.23518C3.73491 9.12544 3.7194 8.94167 3.82347 8.82489C3.92752 8.70813 4.11188 8.70243 4.23502 8.81217C4.35816 8.92191 4.37367 9.10568 4.2696 9.22246C4.16553 9.33924 3.98119 9.34492 3.85805 9.23518ZM6.40411 8.08896C6.26338 7.96355 6.24566 7.7535 6.36457 7.62006C6.48349 7.48663 6.69416 7.48012 6.83491 7.60555C6.97564 7.73097 6.99334 7.94099 6.87442 8.07443C6.75553 8.20789 6.54486 8.2144 6.40411 8.08896ZM5.85011 9.90819C5.70938 9.78277 5.69166 9.57273 5.81058 9.43929C5.92949 9.30585 6.14016 9.29935 6.28092 9.42478C6.42165 9.5502 6.43935 9.76022 6.32043 9.89366C6.20152 10.0271 5.99085 10.0336 5.85011 9.90819ZM7.74627 9.01343C7.63706 8.91611 7.62331 8.7531 7.71558 8.64955C7.80786 8.546 7.9714 8.54095 8.0806 8.63827C8.18981 8.73559 8.20357 8.89861 8.11127 9.00218C8.01897 9.1057 7.85548 9.11075 7.74627 9.01343ZM11.1772 11.7353C11.196 11.9421 11.1377 12.1465 10.9939 12.3086C10.8511 12.4681 10.658 12.5499 10.4539 12.5569C10.25 12.5626 10.0438 12.4932 9.87504 12.3431C9.71121 12.1968 9.61946 12.0064 9.59885 11.809C9.57911 11.6113 9.63146 11.4129 9.76229 11.2534L10.0177 10.9414L8.99998 10.0344C9.16831 9.94449 9.31056 9.8383 9.42177 9.71351C9.52457 9.59817 9.59981 9.47097 9.65606 9.33702L10.6545 10.2268L10.9351 9.93731C11.0787 9.78887 11.2697 9.71426 11.4682 9.71134C11.6668 9.70901 11.8664 9.77846 12.0305 9.92445C12.199 10.0749 12.2916 10.2717 12.3093 10.475C12.326 10.6782 12.2668 10.8796 12.1247 11.0397C11.9802 11.2012 11.7838 11.2826 11.5767 11.2878L11.1357 11.2968L11.1772 11.7353Z" fill="#115437"/>
    </g>
    </g>
    <defs>
    <clipPath id="clip0_18_400">
    <rect width="14" height="14" fill="white"/>
    </clipPath>
    <clipPath id="clip1_18_400">
    <rect width="13.9938" height="13.2685" fill="white" transform="translate(6.1875 -2) rotate(41.7065)"/>
    </clipPath>
    </defs>
</svg>
    