<svg width="60" height="60" viewBox="0 0 60 60" fill="none" xmlns="http://www.w3.org/2000/svg">
<g clip-path="url(#clip0_54_331)">
<path d="M60 45C60 46.7681 59.2976 48.4638 58.0474 49.7141C56.7971 50.9643 55.1014 51.6667 53.3333 51.6667H6.66667C4.89856 51.6667 3.20286 50.9643 1.95262 49.7141C0.702379 48.4638 0 46.7681 0 45V15C0 13.2319 0.702379 11.5362 1.95262 10.286C3.20286 9.03575 4.89856 8.33337 6.66667 8.33337H53.3333C55.1014 8.33337 56.7971 9.03575 58.0474 10.286C59.2976 11.5362 60 13.2319 60 15V45Z" fill="#009B3A"/>
<path d="M54.5467 30L30 48.54L5.45337 30L30 11.4584L54.5467 30Z" fill="#FEDF01"/>
<path d="M29.9601 40.6367C35.9045 40.6367 40.7234 35.8177 40.7234 29.8733C40.7234 23.9289 35.9045 19.11 29.9601 19.11C24.0157 19.11 19.1968 23.9289 19.1968 29.8733C19.1968 35.8177 24.0157 40.6367 29.9601 40.6367Z" fill="#002776"/>
<path d="M20.4616 24.8117C19.9025 25.8651 19.524 27.0048 19.3416 28.1834C25.9999 27.7 35.0366 31.335 38.9149 35.8417C39.5849 34.835 40.0816 33.7084 40.3866 32.5017C35.5999 27.8217 27.1916 24.785 20.4616 24.8117Z" fill="#CBE9D4"/>
<path d="M20 30.3883H21.6667V32.055H20V30.3883ZM21.6667 33.7216H23.3333V35.3883H21.6667V33.7216Z" fill="#88C9F9"/>
<path d="M25 30.3884H26.6667V32.0551H25V30.3884ZM28.3333 32.0551H30V33.7217H28.3333V32.0551ZM35 35.3884H36.6667V37.0551H35V35.3884ZM30 37.0551H31.6667V38.7217H30V37.0551ZM35 27.0551H36.6667V28.7217H35V27.0551Z" fill="#55ACEE"/>
<path d="M31.6667 33.7217H33.3334V35.3883H31.6667V33.7217Z" fill="#3B88C3"/>
</g>
<defs>
<clipPath id="clip0_54_331">
<rect width="60" height="60" fill="white"/>
</clipPath>
</defs>
</svg>
