<svg width="60" height="60" viewBox="0 0 60 60" fill="none" xmlns="http://www.w3.org/2000/svg">
<g clip-path="url(#clip0_18_526)">
<mask id="mask0_18_526" style="mask-type:luminance" maskUnits="userSpaceOnUse" x="0" y="8" width="60" height="44">
<path d="M55.7143 8.57141H4.28571C1.91878 8.57141 0 10.4902 0 12.8571V47.1428C0 49.5098 1.91878 51.4286 4.28571 51.4286H55.7143C58.0812 51.4286 60 49.5098 60 47.1428V12.8571C60 10.4902 58.0812 8.57141 55.7143 8.57141Z" fill="white"/>
</mask>
<g mask="url(#mask0_18_526)">
<path d="M55.7143 8.57141H4.28571C1.91878 8.57141 0 10.4902 0 12.8571V47.1428C0 49.5098 1.91878 51.4286 4.28571 51.4286H55.7143C58.0812 51.4286 60 49.5098 60 47.1428V12.8571C60 10.4902 58.0812 8.57141 55.7143 8.57141Z" fill="white"/>
<mask id="mask1_18_526" style="mask-type:alpha" maskUnits="userSpaceOnUse" x="0" y="8" width="60" height="44">
<path d="M55.7143 8.57141H4.28571C1.91878 8.57141 0 10.4902 0 12.8571V47.1428C0 49.5098 1.91878 51.4286 4.28571 51.4286H55.7143C58.0812 51.4286 60 49.5098 60 47.1428V12.8571C60 10.4902 58.0812 8.57141 55.7143 8.57141Z" fill="white"/>
</mask>
<g mask="url(#mask1_18_526)">
<path fill-rule="evenodd" clip-rule="evenodd" d="M60 8.57141H0V11.4285H60V8.57141ZM60 14.2857H0V17.1428H60V14.2857ZM0 20H60V22.8571H0V20ZM60 25.7143H0V28.5714H60V25.7143ZM0 31.4286H60V34.2857H0V31.4286ZM60 37.1428H0V40.0001H60V37.1428ZM0 42.8571H60V45.7142H0V42.8571ZM60 48.5715H0V51.4286H60V48.5715Z" fill="#D02F44"/>
<path d="M25.7143 8.57141H0V28.5714H25.7143V8.57141Z" fill="#46467F"/>
<g filter="url(#filter0_d_18_526)">
<path fill-rule="evenodd" clip-rule="evenodd" d="M5.71433 12.8571C5.71433 13.6461 5.07473 14.2857 4.28576 14.2857C3.49678 14.2857 2.85718 13.6461 2.85718 12.8571C2.85718 12.0682 3.49678 11.4286 4.28576 11.4286C5.07473 11.4286 5.71433 12.0682 5.71433 12.8571ZM11.4286 12.8571C11.4286 13.6461 10.789 14.2857 10 14.2857C9.21107 14.2857 8.57147 13.6461 8.57147 12.8571C8.57147 12.0682 9.21107 11.4286 10 11.4286C10.789 11.4286 11.4286 12.0682 11.4286 12.8571ZM15.7143 14.2857C16.5033 14.2857 17.1429 13.6461 17.1429 12.8571C17.1429 12.0682 16.5033 11.4286 15.7143 11.4286C14.9253 11.4286 14.2858 12.0682 14.2858 12.8571C14.2858 13.6461 14.9253 14.2857 15.7143 14.2857ZM22.8571 12.8571C22.8571 13.6461 22.2177 14.2857 21.4286 14.2857C20.6396 14.2857 20 13.6461 20 12.8571C20 12.0682 20.6396 11.4286 21.4286 11.4286C22.2177 11.4286 22.8571 12.0682 22.8571 12.8571ZM7.14289 17.1429C7.93187 17.1429 8.57147 16.5033 8.57147 15.7143C8.57147 14.9253 7.93187 14.2857 7.14289 14.2857C6.35391 14.2857 5.71433 14.9253 5.71433 15.7143C5.71433 16.5033 6.35391 17.1429 7.14289 17.1429ZM14.2858 15.7143C14.2858 16.5033 13.6462 17.1429 12.8572 17.1429C12.0682 17.1429 11.4286 16.5033 11.4286 15.7143C11.4286 14.9253 12.0682 14.2857 12.8572 14.2857C13.6462 14.2857 14.2858 14.9253 14.2858 15.7143ZM18.5715 17.1429C19.3605 17.1429 20 16.5033 20 15.7143C20 14.9253 19.3605 14.2857 18.5715 14.2857C17.7825 14.2857 17.1429 14.9253 17.1429 15.7143C17.1429 16.5033 17.7825 17.1429 18.5715 17.1429ZM22.8571 18.5714C22.8571 19.3604 22.2177 20 21.4286 20C20.6396 20 20 19.3604 20 18.5714C20 17.7825 20.6396 17.1429 21.4286 17.1429C22.2177 17.1429 22.8571 17.7825 22.8571 18.5714ZM15.7143 20C16.5033 20 17.1429 19.3604 17.1429 18.5714C17.1429 17.7825 16.5033 17.1429 15.7143 17.1429C14.9253 17.1429 14.2858 17.7825 14.2858 18.5714C14.2858 19.3604 14.9253 20 15.7143 20ZM11.4286 18.5714C11.4286 19.3604 10.789 20 10 20C9.21107 20 8.57147 19.3604 8.57147 18.5714C8.57147 17.7825 9.21107 17.1429 10 17.1429C10.789 17.1429 11.4286 17.7825 11.4286 18.5714ZM4.28576 20C5.07473 20 5.71433 19.3604 5.71433 18.5714C5.71433 17.7825 5.07473 17.1429 4.28576 17.1429C3.49678 17.1429 2.85718 17.7825 2.85718 18.5714C2.85718 19.3604 3.49678 20 4.28576 20ZM8.57147 21.4286C8.57147 22.2176 7.93187 22.8572 7.14289 22.8572C6.35391 22.8572 5.71433 22.2176 5.71433 21.4286C5.71433 20.6396 6.35391 20 7.14289 20C7.93187 20 8.57147 20.6396 8.57147 21.4286ZM12.8572 22.8572C13.6462 22.8572 14.2858 22.2176 14.2858 21.4286C14.2858 20.6396 13.6462 20 12.8572 20C12.0682 20 11.4286 20.6396 11.4286 21.4286C11.4286 22.2176 12.0682 22.8572 12.8572 22.8572ZM20 21.4286C20 22.2176 19.3605 22.8572 18.5715 22.8572C17.7825 22.8572 17.1429 22.2176 17.1429 21.4286C17.1429 20.6396 17.7825 20 18.5715 20C19.3605 20 20 20.6396 20 21.4286ZM21.4286 25.7143C22.2177 25.7143 22.8571 25.0747 22.8571 24.2857C22.8571 23.4968 22.2177 22.8572 21.4286 22.8572C20.6396 22.8572 20 23.4968 20 24.2857C20 25.0747 20.6396 25.7143 21.4286 25.7143ZM17.1429 24.2857C17.1429 25.0747 16.5033 25.7143 15.7143 25.7143C14.9253 25.7143 14.2858 25.0747 14.2858 24.2857C14.2858 23.4968 14.9253 22.8572 15.7143 22.8572C16.5033 22.8572 17.1429 23.4968 17.1429 24.2857ZM10 25.7143C10.789 25.7143 11.4286 25.0747 11.4286 24.2857C11.4286 23.4968 10.789 22.8572 10 22.8572C9.21107 22.8572 8.57147 23.4968 8.57147 24.2857C8.57147 25.0747 9.21107 25.7143 10 25.7143ZM5.71433 24.2857C5.71433 25.0747 5.07473 25.7143 4.28576 25.7143C3.49678 25.7143 2.85718 25.0747 2.85718 24.2857C2.85718 23.4968 3.49678 22.8572 4.28576 22.8572C5.07473 22.8572 5.71433 23.4968 5.71433 24.2857Z" fill="url(#paint0_linear_18_526)"/>
</g>
</g>
</g>
</g>
<defs>
<filter id="filter0_d_18_526" x="2.85718" y="11.4286" width="20" height="16.4286" filterUnits="userSpaceOnUse" color-interpolation-filters="sRGB">
<feFlood flood-opacity="0" result="BackgroundImageFix"/>
<feColorMatrix in="SourceAlpha" type="matrix" values="0 0 0 0 0 0 0 0 0 0 0 0 0 0 0 0 0 0 127 0" result="hardAlpha"/>
<feOffset dy="2.14286"/>
<feColorMatrix type="matrix" values="0 0 0 0 0 0 0 0 0 0 0 0 0 0 0 0 0 0 0.06 0"/>
<feBlend mode="normal" in2="BackgroundImageFix" result="effect1_dropShadow_18_526"/>
<feBlend mode="normal" in="SourceGraphic" in2="effect1_dropShadow_18_526" result="shape"/>
</filter>
<linearGradient id="paint0_linear_18_526" x1="2.85718" y1="11.4286" x2="2.85718" y2="25.7143" gradientUnits="userSpaceOnUse">
<stop stop-color="white"/>
<stop offset="1" stop-color="#F0F0F0"/>
</linearGradient>
<clipPath id="clip0_18_526">
<rect width="60" height="60" fill="white"/>
</clipPath>
</defs>
</svg>
